<svg xmlns="http://www.w3.org/2000/svg" viewBox="0 0 200 200" width="200" height="200">
  <defs>
    <radialGradient id="chanterelleGradient" cx="50%" cy="30%" r="70%">
      <stop offset="0%" style="stop-color:#FFD700;stop-opacity:1" />
      <stop offset="70%" style="stop-color:#FFA500;stop-opacity:1" />
      <stop offset="100%" style="stop-color:#FF8C00;stop-opacity:1" />
    </radialGradient>
    <filter id="shadow" x="-50%" y="-50%" width="200%" height="200%">
      <feDropShadow dx="2" dy="4" stdDeviation="3" flood-opacity="0.3"/>
    </filter>
  </defs>
  
  <!-- Ground/Base -->
  <ellipse cx="100" cy="180" rx="30" ry="8" fill="#8B4513" opacity="0.3"/>
  
  <!-- Stem -->
  <path d="M 85 150 Q 90 140 95 120 Q 100 100 105 120 Q 110 140 115 150" 
        fill="url(#chanterelleGradient)" filter="url(#shadow)" opacity="0.9"/>
  
  <!-- Main cap -->
  <path d="M 50 120 Q 60 80 80 70 Q 100 60 120 70 Q 140 80 150 120 
           Q 145 140 130 145 Q 100 150 70 145 Q 55 140 50 120 Z" 
        fill="url(#chanterelleGradient)" filter="url(#shadow)"/>
  
  <!-- Gills (wavy lines) -->
  <path d="M 70 130 Q 85 125 100 130 Q 115 135 130 130" 
        stroke="#FF8C00" stroke-width="1.5" fill="none" opacity="0.7"/>
  <path d="M 75 135 Q 90 130 100 135 Q 110 140 125 135" 
        stroke="#FF8C00" stroke-width="1.5" fill="none" opacity="0.7"/>
  <path d="M 80 140 Q 95 135 100 140 Q 105 145 120 140" 
        stroke="#FF8C00" stroke-width="1.5" fill="none" opacity="0.7"/>
  
  <!-- Whimsical sparkles -->
  <circle cx="60" cy="90" r="2" fill="#FFFF00" opacity="0.8">
    <animate attributeName="opacity" values="0.8;0.3;0.8" dur="2s" repeatCount="indefinite"/>
  </circle>
  <circle cx="140" cy="100" r="1.5" fill="#FFFF00" opacity="0.6">
    <animate attributeName="opacity" values="0.6;0.2;0.6" dur="1.5s" repeatCount="indefinite"/>
  </circle>
  <circle cx="75" cy="75" r="1" fill="#FFFF00" opacity="0.9">
    <animate attributeName="opacity" values="0.9;0.4;0.9" dur="2.5s" repeatCount="indefinite"/>
  </circle>
</svg>