<svg xmlns="http://www.w3.org/2000/svg" viewBox="0 0 200 200" width="200" height="200">
  <defs>
    <radialGradient id="lionsManeGradient" cx="50%" cy="30%" r="70%">
      <stop offset="0%" style="stop-color:#FFFAF0;stop-opacity:1" />
      <stop offset="70%" style="stop-color:#F5F5DC;stop-opacity:1" />
      <stop offset="100%" style="stop-color:#DDD;stop-opacity:1" />
    </radialGradient>
    <filter id="fluffyShadow" x="-50%" y="-50%" width="200%" height="200%">
      <feDropShadow dx="1" dy="2" stdDeviation="2" flood-opacity="0.2"/>
    </filter>
  </defs>
  
  <!-- Main fluffy body -->
  <circle cx="100" cy="100" r="45" fill="url(#lionsManeGradient)" filter="url(#fluffyShadow)"/>
  
  <!-- Fluffy spines/icicles -->
  <path d="M 70 120 Q 72 130 75 140 Q 77 135 80 145" stroke="#F0F0F0" stroke-width="3" fill="none" opacity="0.8"/>
  <path d="M 80 125 Q 82 135 85 145 Q 87 140 90 150" stroke="#F0F0F0" stroke-width="3" fill="none" opacity="0.8"/>
  <path d="M 90 130 Q 92 140 95 150 Q 97 145 100 155" stroke="#F0F0F0" stroke-width="3" fill="none" opacity="0.8"/>
  <path d="M 100 130 Q 102 140 105 150 Q 107 145 110 155" stroke="#F0F0F0" stroke-width="3" fill="none" opacity="0.8"/>
  <path d="M 110 125 Q 112 135 115 145 Q 117 140 120 150" stroke="#F0F0F0" stroke-width="3" fill="none" opacity="0.8"/>
  <path d="M 120 120 Q 122 130 125 140 Q 127 135 130 145" stroke="#F0F0F0" stroke-width="3" fill="none" opacity="0.8"/>
  
  <!-- Additional fluffy layers -->
  <circle cx="85" cy="95" r="15" fill="#FFFAF0" opacity="0.7"/>
  <circle cx="115" cy="95" r="15" fill="#FFFAF0" opacity="0.7"/>
  <circle cx="100" cy="85" r="12" fill="#FFFAF0" opacity="0.8"/>
  
  <!-- Whimsical brain neurons (since it's brain food!) -->
  <path d="M 60 70 Q 65 75 70 70" stroke="#DDA0DD" stroke-width="1" fill="none" opacity="0.5">
    <animate attributeName="opacity" values="0.5;0.1;0.5" dur="3s" repeatCount="indefinite"/>
  </path>
  <path d="M 130 70 Q 135 75 140 70" stroke="#DDA0DD" stroke-width="1" fill="none" opacity="0.5">
    <animate attributeName="opacity" values="0.5;0.1;0.5" dur="2.5s" repeatCount="indefinite"/>
  </path>
</svg>