<?xml version="1.0" encoding="UTF-8" standalone="no"?>
<svg width="120" height="120" viewBox="0 0 120 120" xmlns="http://www.w3.org/2000/svg">
  <!-- Background Circle -->
  <circle cx="60" cy="60" r="55" fill="#ffffff" stroke="#34836e" stroke-width="2.5"/>
  
  <!-- Mushroom Cap -->
  <path d="M60 25 C30 25 25 50 35 65 C40 72 80 72 85 65 C95 50 90 25 60 25" fill="#34836e"/>
  
  <!-- Mushroom Stem -->
  <rect x="52" y="65" width="16" height="30" rx="4" fill="#34836e"/>
  
  <!-- DNA Helix representing research -->
  <path d="M55 32 C65 40 45 48 55 56 C65 64 45 72 55 80" fill="none" stroke="#81c784" stroke-width="2.5" stroke-linecap="round"/>
  <path d="M65 32 C55 40 75 48 65 56 C55 64 75 72 65 80" fill="none" stroke="#b2dfdb" stroke-width="2.5" stroke-linecap="round"/>
  
  <!-- Small Circles representing compounds -->
  <circle cx="55" cy="32" r="2.5" fill="#ffffff"/>
  <circle cx="65" cy="40" r="2.5" fill="#ffffff"/>
  <circle cx="55" cy="48" r="2.5" fill="#ffffff"/>
  <circle cx="65" cy="56" r="2.5" fill="#ffffff"/>
  <circle cx="55" cy="64" r="2.5" fill="#ffffff"/>
  <circle cx="65" cy="72" r="2.5" fill="#ffffff"/>
  <circle cx="55" cy="80" r="2.5" fill="#ffffff"/>
  
  <!-- Microscope lens outline -->
  <circle cx="60" cy="60" r="40" fill="none" stroke="#81c784" stroke-width="1.5" stroke-dasharray="3,3"/>
</svg>