<?xml version="1.0" encoding="UTF-8" standalone="no"?>
<svg xmlns="http://www.w3.org/2000/svg" viewBox="0 0 500 500" width="500" height="500">
  <circle cx="250" cy="250" r="240" fill="none" stroke="#CCCCCC" stroke-width="10"/>
  <g fill="#CCCCCC">
    <!-- Mushroom cap -->
    <path d="M250 130 C190 130, 160 160, 160 200 C160 230, 200 240, 250 240 C300 240, 340 230, 340 200 C340 160, 310 130, 250 130"/>
    <!-- Mushroom stem -->
    <rect x="230" y="240" width="40" height="80"/>
    <!-- Roots/Mycelium -->
    <path d="M140 320 C170 350, 210 370, 250 370 C290 370, 330 350, 360 320" fill="none" stroke="#CCCCCC" stroke-width="10"/>
    <path d="M150 330 L120 350" fill="none" stroke="#CCCCCC" stroke-width="6"/>
    <path d="M170 340 L150 370" fill="none" stroke="#CCCCCC" stroke-width="6"/>
    <path d="M200 350 L190 380" fill="none" stroke="#CCCCCC" stroke-width="6"/>
    <path d="M230 355 L230 385" fill="none" stroke="#CCCCCC" stroke-width="6"/>
    <path d="M270 355 L270 385" fill="none" stroke="#CCCCCC" stroke-width="6"/>
    <path d="M300 350 L310 380" fill="none" stroke="#CCCCCC" stroke-width="6"/>
    <path d="M330 340 L350 370" fill="none" stroke="#CCCCCC" stroke-width="6"/>
    <path d="M350 330 L380 350" fill="none" stroke="#CCCCCC" stroke-width="6"/>
    <!-- Molecular structure -->
    <circle cx="350" cy="170" r="7"/>
    <circle cx="380" cy="200" r="7"/>
    <circle cx="380" cy="250" r="7"/>
    <path d="M350 170 L380 200 L380 250" fill="none" stroke="#CCCCCC" stroke-width="5"/>
  </g>
</svg>