<?xml version="1.0" encoding="UTF-8" standalone="no"?>
<svg width="120" height="120" viewBox="0 0 120 120" fill="none" xmlns="http://www.w3.org/2000/svg">
  <!-- Mushroom cap -->
  <path d="M60 25C39.01 25 22 37.01 22 52C22 66.99 39.01 79 60 79C80.99 79 98 66.99 98 52C98 37.01 80.99 25 60 25Z" fill="#8B5CF6" stroke="#6B46C1" stroke-width="2"/>
  
  <!-- Mushroom stem -->
  <path d="M50 78L50 95C50 100 70 100 70 95L70 78" fill="#E2E8F0" stroke="#94A3B8" stroke-width="2"/>
  
  <!-- Mushroom gills -->
  <path d="M42 65C42 65 50 72 60 72C70 72 78 65 78 65" stroke="#94A3B8" stroke-width="1.5" stroke-linecap="round"/>
  <path d="M36 60C36 60 48 70 60 70C72 70 84 60 84 60" stroke="#94A3B8" stroke-width="1.5" stroke-linecap="round"/>
  <path d="M32 52C32 52 46 66 60 66C74 66 88 52 88 52" stroke="#94A3B8" stroke-width="1.5" stroke-linecap="round"/>
  
  <!-- Decorative spots on cap -->
  <circle cx="40" cy="40" r="3" fill="white"/>
  <circle cx="55" cy="35" r="2.5" fill="white"/>
  <circle cx="70" cy="38" r="3.5" fill="white"/>
  <circle cx="80" cy="47" r="2" fill="white"/>
  <circle cx="48" cy="48" r="2" fill="white"/>
  <circle cx="63" cy="45" r="2.5" fill="white"/>
  <circle cx="35" cy="55" r="2" fill="white"/>
  
  <!-- DNA strand representing research -->
  <path d="M30 15C36 10 44 20 50 15C56 10 64 20 70 15C76 10 84 20 90 15" stroke="#0EA5E9" stroke-width="2" stroke-linecap="round"/>
  
  <!-- Circular ring resembling a petri dish -->
  <circle cx="60" cy="60" r="50" stroke="#0EA5E9" stroke-width="2" stroke-dasharray="4 4" fill="none"/>
</svg>