<?xml version="1.0" encoding="UTF-8" standalone="no"?>
<svg xmlns="http://www.w3.org/2000/svg" viewBox="0 0 200 200">
  <!-- Circle Container -->
  <circle cx="100" cy="100" r="85" fill="white" stroke="black" stroke-width="4"/>
  
  <!-- Mushroom Cap -->
  <path d="M100 35 C65 35 50 65 60 90 C70 110 130 110 140 90 C150 65 135 35 100 35" fill="black"/>
  
  <!-- Mushroom Stem -->
  <rect x="92" y="90" width="16" height="35" fill="black"/>
  
  <!-- Roots -->
  <path d="M50 135 L60 150 L70 165 L80 150 L90 160 L100 145 L110 160 L120 150 L130 165 L140 150 L150 135" fill="black" stroke="black" stroke-width="2"/>
  
  <!-- Lower Half Circle (black) -->
  <path d="M15,100 a85,85 0 0,0 170,0" fill="black"/>
  
  <!-- Roots (white on black background) -->
  <path d="M50 135 L60 150 L70 165 L80 150 L90 160 L100 145 L110 160 L120 150 L130 165 L140 150 L150 135" fill="none" stroke="white" stroke-width="2"/>
  
  <!-- Molecular Structure -->
  <circle cx="160" cy="60" r="5" fill="white" stroke="black" stroke-width="1.5"/>
  <circle cx="140" cy="75" r="5" fill="white" stroke="black" stroke-width="1.5"/>
  <line x1="160" y1="60" x2="140" y2="75" stroke="black" stroke-width="2"/>
  <circle cx="120" cy="60" r="5" fill="white" stroke="black" stroke-width="1.5"/>
  <line x1="140" y1="75" x2="120" y2="60" stroke="black" stroke-width="2"/>
</svg>