<?xml version="1.0" encoding="UTF-8" standalone="no"?>
<svg xmlns="http://www.w3.org/2000/svg" viewBox="0 0 500 500">
  <!-- White circle background -->
  <circle cx="250" cy="180" r="150" fill="none" stroke="white" stroke-width="8"/>
  
  <!-- Mushroom Cap -->
  <path d="M250 60 C175 60 150 110 170 160 C185 190 315 190 330 160 C350 110 325 60 250 60" fill="white"/>
  
  <!-- Mushroom Stem -->
  <rect x="235" y="160" width="30" height="65" fill="white"/>
  
  <!-- Roots -->
  <path d="M150 225 L170 250 L190 275 L210 250 L230 260 L250 230 L270 260 L290 250 L310 275 L330 250 L350 225" fill="white" stroke="white" stroke-width="3"/>
  
  <!-- Molecular Structure -->
  <circle cx="330" cy="110" r="10" fill="white" stroke="white" stroke-width="2"/>
  <circle cx="295" cy="135" r="10" fill="white" stroke="white" stroke-width="2"/>
  <line x1="330" y1="110" x2="295" y2="135" stroke="white" stroke-width="4"/>
  <circle cx="260" cy="110" r="10" fill="white" stroke="white" stroke-width="2"/>
  <line x1="295" y1="135" x2="260" y2="110" stroke="white" stroke-width="4"/>
  
  <!-- Text -->
  <text x="250" y="370" font-family="Arial, sans-serif" font-weight="bold" font-size="54" text-anchor="middle" fill="white">MYCOLOGY</text>
  <text x="250" y="420" font-family="Arial, sans-serif" font-size="30" text-anchor="middle" fill="white">RESEARCH PIPELINE</text>
</svg>